<svg id="Layer_1" data-name="Layer 1" xmlns="http://www.w3.org/2000/svg" xmlns:xlink="http://www.w3.org/1999/xlink" width="330" height="90" viewBox="0 0 330 90"><defs><style>.cls-1{fill:none;}.cls-2{clip-path:url(#clip-path);}.cls-3{fill:#a39161;}.cls-4{fill:#fff;}.cls-5{fill:#27588d;}</style><clipPath id="clip-path"><rect class="cls-1" x="4.13" y="5.06" width="321.21" height="80.54"/></clipPath></defs><title>Artboard 1</title><g class="cls-2"><path class="cls-3" d="M157.49,22.59a13.92,13.92,0,0,1-3.23,4.59.63.63,0,0,1-.42.1c-.21,0-.31-.1-.31-.21a1,1,0,0,1,.31-.52,9.39,9.39,0,0,0,2.82-4.38,8.5,8.5,0,0,0,.42-2.71c0-4.8-3.76-8.45-8.66-9.7A23.23,23.23,0,0,0,142.47,9a31.12,31.12,0,0,0-8.87,1.36c-6.26,1.77-13.88,6.57-22.54,14.29-9,7.93-18.67,18.67-24.52,25.46A138.12,138.12,0,0,0,73.3,68.71C72,70.79,71,72.78,70.06,74.13c-.31.42-.52.52-.83.52a1.14,1.14,0,0,1-.73-.31,3.53,3.53,0,0,1-.94-2.09V72a2.49,2.49,0,0,1,.63-1.46,64.43,64.43,0,0,0,8.14-12.31,91.43,91.43,0,0,0,4.59-11.06c1.25-3.65,2.29-7.1,3.24-9.6,1.77-4.9,4.07-11.89,5.84-18.26-3.13,2.82-8.35,7.72-13.35,12.52-7.09,6.78-16.17,16.48-22.75,24.2C49,61.92,44,68.71,40.64,73.3a1.81,1.81,0,0,1-1.46.94c-.11,0-.31-.1-.42-.1a2.77,2.77,0,0,1-1.36-.84V73a1.67,1.67,0,0,1,.32-.84,131.22,131.22,0,0,0,15-24.2c3.44-7.09,7.3-15.23,9.81-20.34,1.25-2.51,2.61-5.11,3.86-7.2a1.1,1.1,0,0,1,.83-.62c.21,0,.31.1.52.31a3.89,3.89,0,0,1,.83,2.29,4.09,4.09,0,0,1-.31,1.46A101.23,101.23,0,0,1,61.2,37.41C58.48,41.89,51.7,53,48.26,60.88a386.62,386.62,0,0,1,30-32c2.92-2.71,7.31-6.89,10-9.81a25.29,25.29,0,0,0,3.86-4.9,7.83,7.83,0,0,1,2.61-2.92,14.43,14.43,0,0,1,2.92-1.36h.21a.38.38,0,0,1,.42.42.63.63,0,0,1-.1.42c-1.46,1.57-2.29,3.76-3.23,6.47C90.62,29.58,84.57,45.23,78.2,58l-.11.21c0,.1.11.1.21.1l.11-.1a284.13,284.13,0,0,1,31.93-34.54c7.82-7.09,15-12.21,22.54-15.54a33.42,33.42,0,0,1,12.83-3,16.21,16.21,0,0,1,3.23.31c6.47,1.25,9.91,5.63,9.91,11.06a15.32,15.32,0,0,1-1.36,6.16M73.72,15a6.44,6.44,0,0,1-3.86,2.82c-4.59,1.36-14.71,4.8-22.12,7.83a88.35,88.35,0,0,0-25.46,16c-7.41,6.78-12.94,15.86-14,24.2a26.89,26.89,0,0,0-.21,2.92c0,8.24,4.9,14.19,15,16.28.32.1.52.31.52.42s-.32.21-.62.21H22.8a21.3,21.3,0,0,1-6.58-1.88c-7-3.55-12.1-9.39-12.1-17.42a23.07,23.07,0,0,1,.52-4.49c1.67-8,7.62-16,15.76-22.22,7.3-5.63,17.22-10.54,27-14.71C56.6,21,64.22,18,70.38,16a8.74,8.74,0,0,0,2.82-1.46.78.78,0,0,1,.42-.11c.11,0,.21,0,.21.11a.63.63,0,0,1-.1.42"/></g><rect class="cls-3" x="31.81" y="36.78" width="292.82" height="22.99"/><rect class="cls-4" x="31.07" y="37.15" width="294.27" height="22.25"/><g class="cls-2"><path class="cls-5" d="M49.06,41.19v.32a3.19,3.19,0,0,0-2.4.91l-4.53,4.14,6.34,5.6a3.9,3.9,0,0,0,2.69,1.19v.4H44.84v-.4c.86,0,1.34-.2,1.34-.53s-.57-1-1.65-2L40.87,47.6l-1,.81v3.15c0,1.5.26,1.78,1.67,1.78v.4H36.28v-.4c1.45,0,1.71-.28,1.71-1.78v-8.2c0-1.51-.26-1.78-1.71-1.78v-.4H41.6v.4c-1.45,0-1.72.28-1.72,1.78V47.8l3.39-2.91c1.32-1.13,2.07-2,2.07-2.55s-.59-.69-1.43-.67v-.4Z"/><path class="cls-5" d="M61.29,48.28,59.4,43.9c-.13-.32-.24-.65-.31-.87h0c-.26.79-.9,2.2-1.08,2.62l-1.12,2.63Zm-4.69.55-.92,2.26a3.3,3.3,0,0,0-.4,1.33c0,.65.53.89,1.43.93v.4H52.49v-.4c1.43-.16,1.8-.61,3.52-4.55l1.72-4A12,12,0,0,0,58.47,43a.45.45,0,0,1,.11-.36l1-1.35c.15-.2.22-.24.37-.24.4,0,.35.57,1,2.06l3.3,7.62c1,2.3,1.28,2.51,2.64,2.63v.4H61.4v-.4c1.19-.12,1.5-.32,1.5-.71a3.86,3.86,0,0,0-.35-1.35l-1-2.45Z"/><path class="cls-5" d="M80.26,40.75V44.1H80c-.53-1.8-1.5-2.12-3.79-2.12-1.83,0-2,.06-2,1.74,0,1.86-.2,6.73-.2,7.84,0,1.38.42,1.7,2.24,1.78v.4H69.87v-.4c2,0,2.31-.28,2.31-1.78,0-1.11.2-6,.2-7.84,0-1.62,0-1.66-1.76-1.66-2.31,0-3.3.75-4,2h-.49l.95-3.35h.46a2.47,2.47,0,0,0,1.94.63h8.28c1.36,0,1.56-.12,2.2-.63Z"/><path class="cls-5" d="M94.34,46.85V43.37c0-1.51-.26-1.78-2-1.78v-.4H98v.4c-1.47,0-1.74.28-1.74,1.78v8.2c0,1.5.27,1.78,1.74,1.78v.4H92.2v-.4c1.87,0,2.14-.28,2.14-1.78v-4H85.53v4c0,1.5.27,1.78,2,1.78v.4H81.82v-.4c1.56,0,1.82-.28,1.82-1.78v-8.2c0-1.51-.26-1.78-1.72-1.78v-.4h5.59v.4c-1.72,0-2,.28-2,1.78v3.48Z"/><path class="cls-5" d="M112.36,50.69l-.71,3.17c-.75,0-1.5-.08-2.22-.1s-1.45,0-2.14,0h-7.7v-.4c1.91,0,2.18-.28,2.18-1.78v-8.2c0-1.5-.26-1.78-1.83-1.78v-.4h5.88v.4c-1.89,0-2.16.28-2.16,1.78v8.2c0,1.52.15,1.7,1.43,1.7h1.72a5.42,5.42,0,0,0,5-2.58Z"/><path class="cls-5" d="M113.49,53.35c1.8,0,2-.28,2.07-1.78,0-2.57.09-5.35.09-8.2,0-1.51-.26-1.78-1.94-1.78v-.4h10.61l.46,2.26h-.35a4.06,4.06,0,0,0-3.7-1.78h-1.89c-1.1,0-1.3.1-1.3.79v4.32h2.27c1.89,0,2.07-.26,2.4-1.72h.48v4.32h-.48c-.24-1.54-.62-1.92-2.2-1.92h-2.47v5c0,.67.33.83,1.41.83h2.91c2.09,0,2.51-.36,3.92-2.47h.42a30.27,30.27,0,0,0-.75,3h-12Z"/><path class="cls-5" d="M127.35,53.35c1.8,0,2-.28,2.07-1.78,0-2.57.09-5.35.09-8.2,0-1.51-.26-1.78-1.94-1.78v-.4h10.61l.46,2.26h-.35a4.06,4.06,0,0,0-3.7-1.78H132.7c-1.1,0-1.3.1-1.3.79v4.32h2.27c1.89,0,2.07-.26,2.4-1.72h.48v4.32h-.48c-.24-1.54-.62-1.92-2.2-1.92H131.4v5c0,.67.33.83,1.41.83h2.9c2.09,0,2.51-.36,3.92-2.47h.42a30.31,30.31,0,0,0-.75,3h-12Z"/><path class="cls-5" d="M141.49,53.35c1.41-.14,1.89-.34,1.89-2.55V43.41c0-1.47-.75-1.7-2.24-1.82v-.4h3.48c1.72,1.86,8.91,8.79,10,9.82.06-2.34.11-5.74.11-7.63,0-1.17-.4-1.62-2-1.8v-.4h4.73v.4c-1.58.18-2,.65-2,1.8,0,.73-.18,6.91-.29,10.36h-.4c-1.14-1.62-7.15-6.77-10.56-10.65H144v7.7c0,2.22.31,2.4,1.92,2.55v.4h-4.47Z"/><path class="cls-5" d="M172,44.26h-.35c-.66-1.8-1.78-2.83-3.28-2.83-1.08,0-2.62.69-2.62,2.14,0,3.31,7.24,2.7,7.24,6.62,0,1.61-1.61,3.72-5,3.72a10,10,0,0,1-3.65-.61c-.44-.35-.51-2.53-.57-3.19h.33c.33.81,1.39,3.41,4.07,3.41,1.5,0,3.17-.79,3.17-2.53,0-3.56-7.24-2.49-7.24-6.65,0-1.6,1.32-3.29,4.6-3.29a7.83,7.83,0,0,1,3.28.59Z"/><path class="cls-5" d="M176.34,51.8a1.06,1.06,0,1,1-1.17,1.05,1.12,1.12,0,0,1,1.17-1.05"/><path class="cls-5" d="M189.34,41.19v.4c-1.05,0-1.45.28-1.45,1.11A8.71,8.71,0,0,0,189,45.8L191.33,51,194,44.3l-.7-1.62c-.42-.93-.68-1.07-1.67-1.09v-.4h5.46v.4c-1.38,0-1.8.4-1.8.91,0,.79,1.34,3.39,3.21,8.62h0c.68-1.61,3.12-7,3.12-8.52,0-.75-.53-.91-1.63-1v-.4h4.62v.4A1.84,1.84,0,0,0,202.79,43L198.06,53.9h-.31c-.68-2.26-2.44-5.9-3.32-8.57h0c-1.1,2.77-2.42,5.74-3.54,8.57h-.22L186,43.19c-.53-1.25-.86-1.56-1.76-1.6v-.4Z"/><path class="cls-5" d="M209.78,51.57c0,1.5.26,1.78,1.67,1.78v.4h-5.28v-.4c1.45,0,1.72-.28,1.72-1.78v-8.2c0-1.5-.27-1.78-1.72-1.78v-.4h5.59v.4c-1.72,0-2,.28-2,1.78Z"/><path class="cls-5" d="M214,53.35c1.41-.14,1.89-.34,1.89-2.55V43.41c0-1.47-.75-1.7-2.24-1.82v-.4h3.48c1.72,1.86,8.91,8.79,10,9.82.06-2.34.11-5.74.11-7.63,0-1.17-.39-1.62-2-1.8v-.4h4.73v.4c-1.58.18-2,.65-2,1.8,0,.73-.17,6.91-.29,10.36h-.39C226,52.12,220,47,216.6,43.09h-.07v7.7c0,2.22.31,2.4,1.91,2.55v.4H214Z"/><path class="cls-5" d="M231.49,53.35c1.41-.14,1.89-.34,1.89-2.55V43.41c0-1.47-.75-1.7-2.24-1.82v-.4h3.48c1.72,1.86,8.91,8.79,10,9.82.07-2.34.11-5.74.11-7.63,0-1.17-.4-1.62-2-1.8v-.4h4.73v.4c-1.58.18-2,.65-2,1.8,0,.73-.18,6.91-.28,10.36h-.4c-1.15-1.62-7.16-6.77-10.56-10.65H234v7.7c0,2.22.31,2.4,1.91,2.55v.4h-4.47Z"/><path class="cls-5" d="M258.29,52.12c0,.83.33,1.32,1.91,1.32,2.8,0,4.58-1.84,4.58-4.93,0-3.31-1.94-5.38-5-5.38-1.19,0-1.53.23-1.53,1.56Zm-2.88,1.32c1.32,0,1.51-.24,1.51-1.56V44.69c0-1.32-.19-1.56-1.15-1.56v-.35h4.15c2.46,0,6.43,1.42,6.43,5.7a5.2,5.2,0,0,1-5.42,5.31h-5.54Z"/><path class="cls-5" d="M276.13,53.44c1.15-.07,1.42-.28,1.4-1-.06-2.61-.06-5.28-.16-7.83h0c-1.27,3-2.7,6.13-3.77,9h-.22c-.28-.68-.72-2-1.22-3.13s-1.57-3.7-2.51-6.09h0c0,2.83-.13,5.48-.13,7.06,0,1.41.29,2,1.45,2v.35h-3.31v-.35c.91-.17,1.24-.42,1.34-1.82.16-2.22.24-5.61.24-6.51,0-1.77-.22-1.91-1.43-2v-.35h2.63l2.83,7c.22.56.46,1,.67,1.69l3.83-8.7h2.45v.35c-1.26.09-1.53.42-1.53,1.75,0,.68.11,4.5.16,7.64,0,.69.38.85,1.37.92v.35h-4Z"/><path class="cls-5" d="M283.92,52.12c0,.83.33,1.32,1.91,1.32,2.8,0,4.58-1.84,4.58-4.93,0-3.31-1.94-5.38-5-5.38-1.19,0-1.53.23-1.53,1.56ZM281,53.44c1.32,0,1.51-.24,1.51-1.56V44.69c0-1.32-.19-1.56-1.15-1.56v-.35h4.15c2.47,0,6.44,1.42,6.44,5.7a5.21,5.21,0,0,1-5.42,5.31H281Z"/><path class="cls-5" d="M293.34,56.42c1-.59,1.5-1.23,1.5-1.94,0-.94-1.37-.24-1.37-1.44a.88.88,0,0,1,.92-1c.7,0,1.21.83,1.21,1.63a3.21,3.21,0,0,1-2.26,3Z"/><path class="cls-5" d="M300.32,53.44c1.16,0,1.36-.24,1.36-1.56V44.69c0-1.32-.2-1.56-1.42-1.56v-.35h4.36c1.64,0,3.72.66,3.72,3,0,2.59-2.24,3.38-4.74,3.38V48.7c2.34,0,3.37-1,3.37-2.88a2.49,2.49,0,0,0-2.67-2.62c-1.07,0-1.25.24-1.25,1.56v7.12c0,1.32.19,1.56,1.41,1.56v.35h-4.13Z"/><path class="cls-5" d="M314.92,49l-1.37-3.84c-.09-.28-.18-.57-.22-.76h0c-.2.69-.65,1.93-.78,2.29L311.71,49Zm-3.39.49-.67,2a3.35,3.35,0,0,0-.29,1.16c0,.57.38.78,1,.81v.35h-3.05v-.35c1-.14,1.3-.53,2.54-4L312.35,46a12,12,0,0,0,.54-1.63A.46.46,0,0,1,313,44l.72-1.18c.11-.18.16-.21.27-.21.29,0,.26.5.72,1.81l2.38,6.68c.73,2,.92,2.21,1.91,2.31v.35h-4v-.35c.86-.1,1.08-.28,1.08-.62a4.06,4.06,0,0,0-.25-1.18l-.75-2.15Z"/><path class="cls-5" d="M109.53,68.89l-.26-.7a5.69,5.69,0,0,0,1.62-.76,4.5,4.5,0,0,0,1.2-1.14,2.15,2.15,0,0,0,.44-1.23.89.89,0,0,0-.29-.71,1.13,1.13,0,0,0-.78-.26,3.17,3.17,0,0,0-1.27.3,6,6,0,0,0-1.37.85,8.65,8.65,0,0,0-1.3,1.31,9.68,9.68,0,0,0-1.12,1.75,9,9,0,0,0-.68,1.86,8.25,8.25,0,0,0-.23,2,4.3,4.3,0,0,0,.79,2.73,2.6,2.6,0,0,0,2.16,1,4,4,0,0,0,1.72-.4,8.91,8.91,0,0,0,1.91-1.33l.15-.12.11.2a8.46,8.46,0,0,1-2.2,1.63,5,5,0,0,1-2.22.54,3.38,3.38,0,0,1-1.8-.48,3.24,3.24,0,0,1-1.22-1.35,4.62,4.62,0,0,1-.43-2,6.89,6.89,0,0,1,.25-1.77,9.35,9.35,0,0,1,.74-1.86A12.79,12.79,0,0,1,106.63,67a10.49,10.49,0,0,1,1.57-1.68,7.6,7.6,0,0,1,1.74-1.15,3.78,3.78,0,0,1,1.56-.4,1.46,1.46,0,0,1,1,.37,1.33,1.33,0,0,1,.39,1,2.84,2.84,0,0,1-.47,1.48A5.09,5.09,0,0,1,111.21,68a4.84,4.84,0,0,1-1.67.85"/><path class="cls-5" d="M117.46,72.34a1.46,1.46,0,0,0-.27-.91.83.83,0,0,0-.69-.36,1.27,1.27,0,0,0-.74.25,2.41,2.41,0,0,0-.65.73,5.53,5.53,0,0,0-.55,1.29,4.74,4.74,0,0,0-.22,1.3,1.76,1.76,0,0,0,.27,1.05.89.89,0,0,0,.76.37c.53,0,1-.37,1.41-1.11a5.69,5.69,0,0,0,.5-1.28,5.29,5.29,0,0,0,.18-1.32m-3.94,2a3.46,3.46,0,0,1,.44-1.65,4,4,0,0,1,1.16-1.34,2.43,2.43,0,0,1,1.45-.51,1.62,1.62,0,0,1,1.25.51,1.85,1.85,0,0,1,.47,1.32,3.64,3.64,0,0,1-.43,1.72,4,4,0,0,1-1.15,1.36,2.39,2.39,0,0,1-1.44.53,1.62,1.62,0,0,1-1.26-.53,2,2,0,0,1-.48-1.39"/><path class="cls-5" d="M119.61,76.22l1-5.1.87-.38-.79,3.38a10.34,10.34,0,0,1,1.52-2.45,2.06,2.06,0,0,1,1.45-.84.72.72,0,0,1,.55.23.85.85,0,0,1,.21.6,2.63,2.63,0,0,1-.1.6l-.09.39-.28,1.12-.09.36a3.75,3.75,0,0,0-.14.85,1,1,0,0,0,.1.47.3.3,0,0,0,.27.18q.29,0,.91-.68l.15.13-.09.1a8.67,8.67,0,0,1-.77.83.72.72,0,0,1-.46.22.58.58,0,0,1-.48-.29,1.25,1.25,0,0,1-.2-.72,5.07,5.07,0,0,1,.11-.87l.36-2a4.45,4.45,0,0,0,.08-.64.39.39,0,0,0-.1-.29.36.36,0,0,0-.28-.1c-.42,0-.95.45-1.57,1.36A8.45,8.45,0,0,0,121,74a17.3,17.3,0,0,0-.66,1.77l-.08.25Z"/><path class="cls-5" d="M127.25,71.22h-.9l.07-.31h.91l.86-4a11.36,11.36,0,0,1,.45-1.6,4.34,4.34,0,0,1,.55-1,2.38,2.38,0,0,1,2-1.06,2,2,0,0,1,.73.13l-.33.84a1.12,1.12,0,0,0-.94-.51.86.86,0,0,0-.7.34,3,3,0,0,0-.47,1.11L128,70.9h1.49l-.06.31H128l-1.26,5.23a9.25,9.25,0,0,1-.48,1.57,3.66,3.66,0,0,1-.64,1,2.18,2.18,0,0,1-1.61.8,1.87,1.87,0,0,1-.76-.15l.45-.66a1.31,1.31,0,0,0,.84.32,1.09,1.09,0,0,0,1-.72,9.37,9.37,0,0,0,.52-1.77Z"/><path class="cls-5" d="M131.7,67.14a.54.54,0,0,1,.39.15.54.54,0,1,1-.93.39.54.54,0,0,1,.54-.54m-.27,3.61-.81,3a4.82,4.82,0,0,0-.2,1.2,1,1,0,0,0,.1.48.3.3,0,0,0,.26.18c.19,0,.5-.23.91-.68l.15.13-.09.1A9,9,0,0,1,131,76a.72.72,0,0,1-.46.22.58.58,0,0,1-.49-.29,1.26,1.26,0,0,1-.2-.72,5.63,5.63,0,0,1,.11-.87l.58-3.22Z"/><path class="cls-5" d="M136.89,71.61a.71.71,0,0,0-.34-.4,1.09,1.09,0,0,0-.55-.15,1.4,1.4,0,0,0-.89.39,4.16,4.16,0,0,0-.86,1.1,5.83,5.83,0,0,0-.48,1.15,3.93,3.93,0,0,0-.19,1.13,1.21,1.21,0,0,0,.19.71.6.6,0,0,0,.52.27,1.32,1.32,0,0,0,.83-.39,5.58,5.58,0,0,0,1.38-2.19c.14-.47.24-.84.31-1.12Zm2.58-8.45L137,73.78a6.34,6.34,0,0,0-.19,1.18,1,1,0,0,0,.1.48.32.32,0,0,0,.29.18.92.92,0,0,0,.58-.36l.27-.27,0,0,0,0,.14.13-.07.08-.36.39-.31.31a2,2,0,0,1-.34.29.49.49,0,0,1-.23.06.6.6,0,0,1-.51-.31,1.32,1.32,0,0,1-.2-.72,5.25,5.25,0,0,1,.13-.88l.1-.52a5.86,5.86,0,0,1-.75,1.26,2.5,2.5,0,0,1-1.81,1.2,1,1,0,0,1-.83-.38,1.62,1.62,0,0,1-.3-1,4,4,0,0,1,.48-1.84,4.75,4.75,0,0,1,1.22-1.54,2.33,2.33,0,0,1,1.48-.61,1.77,1.77,0,0,1,1,.32l1.5-7.52Z"/><path class="cls-5" d="M140.07,74a4.92,4.92,0,0,0,1.53-1,3.35,3.35,0,0,0,.58-.79,1.7,1.7,0,0,0,.22-.76c0-.29-.13-.43-.39-.43s-.8.31-1.21.94a4.51,4.51,0,0,0-.72,2m2.95.7.17.14a4.36,4.36,0,0,1-1.11,1.09,2.22,2.22,0,0,1-1.17.33,1.54,1.54,0,0,1-1.2-.5,1.88,1.88,0,0,1-.45-1.32,3.68,3.68,0,0,1,.44-1.68,4.54,4.54,0,0,1,1.09-1.41,2,2,0,0,1,1.31-.56.88.88,0,0,1,.62.22.73.73,0,0,1,.24.57,2,2,0,0,1-.77,1.42,6.36,6.36,0,0,1-2.11,1.21,1,1,0,0,0,0,.17,1.52,1.52,0,0,0,.35,1,1.15,1.15,0,0,0,.9.4,1.49,1.49,0,0,0,.84-.27,4,4,0,0,0,.86-.85"/><path class="cls-5" d="M144.37,76.22l1-5.1.87-.38-.79,3.38A10.24,10.24,0,0,1,147,71.68a2.06,2.06,0,0,1,1.45-.84.72.72,0,0,1,.55.23.85.85,0,0,1,.21.6,2.58,2.58,0,0,1-.1.6l-.09.39-.28,1.12-.09.36a3.82,3.82,0,0,0-.14.85,1,1,0,0,0,.1.47.3.3,0,0,0,.27.18c.19,0,.5-.23.91-.68l.15.13-.09.1A9.12,9.12,0,0,1,149,76a.72.72,0,0,1-.46.22.57.57,0,0,1-.48-.29,1.25,1.25,0,0,1-.2-.72,5.34,5.34,0,0,1,.11-.87l.36-2a5,5,0,0,0,.07-.64.39.39,0,0,0-.1-.29.37.37,0,0,0-.28-.1c-.42,0-.95.45-1.57,1.36a8.59,8.59,0,0,0-.75,1.29,17.2,17.2,0,0,0-.66,1.77L145,76Z"/><path class="cls-5" d="M152.63,71.22l-.7,3.07a4,4,0,0,0-.11.72.85.85,0,0,0,.16.53.5.5,0,0,0,.41.2.8.8,0,0,0,.46-.14,4.85,4.85,0,0,0,.63-.6l.11-.11.14.14a5.52,5.52,0,0,1-.91.93,1.19,1.19,0,0,1-.71.27.9.9,0,0,1-.7-.29,1.07,1.07,0,0,1-.26-.76,5.18,5.18,0,0,1,.14-1l.6-3H151l.07-.31h.88l.51-2.49.88-.35-.64,2.83h1.49l-.07.31Z"/><path class="cls-5" d="M158.46,75.89,159,75a6.24,6.24,0,0,0,3,.86,4.33,4.33,0,0,0,1.78-.35,3.17,3.17,0,0,0,1.27-1,2.17,2.17,0,0,0,.46-1.33,2,2,0,0,0-.42-1.26,6.45,6.45,0,0,0-1.53-1.28l-1.31-.88c-.16-.11-.36-.27-.61-.47a1.8,1.8,0,0,1-.67-1.39q0-1.45,1.88-2.78a6.94,6.94,0,0,1,1.2-.68,8,8,0,0,1,1.33-.46,5.44,5.44,0,0,1,1.23-.16,2.38,2.38,0,0,1,1.32.32,1,1,0,0,1,.48.87,2.5,2.5,0,0,1-.58,1.48,6.11,6.11,0,0,1-1.58,1.45l-.74-.41a8.72,8.72,0,0,0,1.15-.92,4.47,4.47,0,0,0,.72-.9,1.61,1.61,0,0,0,.26-.8.67.67,0,0,0-.14-.43.86.86,0,0,0-.4-.27,1.91,1.91,0,0,0-.65-.09,4.77,4.77,0,0,0-1.54.28,7.27,7.27,0,0,0-1.55.74,2.82,2.82,0,0,0-1.62,2.27,1.2,1.2,0,0,0,.19.66,2.94,2.94,0,0,0,.68.7q.48.39,1.41,1c.46.3.81.55,1,.74a3.11,3.11,0,0,1,.58.6,2.3,2.3,0,0,1,.52,1.46,2.83,2.83,0,0,1-.33,1.27,4.4,4.4,0,0,1-.92,1.21A5.45,5.45,0,0,1,161,76.36a5.86,5.86,0,0,1-2.56-.46"/><path class="cls-5" d="M171.58,76l-.61.19.73-3.74.06-.32a2.31,2.31,0,0,0,.05-.44c0-.27-.11-.41-.32-.41a1.21,1.21,0,0,0-.74.41,6.07,6.07,0,0,0-.91,1.18,10.16,10.16,0,0,0-.54,1,9.47,9.47,0,0,0-.41,1c-.13.35-.25.75-.37,1.19l-.57.19.95-5.1.88-.38-.8,3.34a9,9,0,0,1,1.41-2.34,2.12,2.12,0,0,1,1.43-.91c.46,0,.69.26.69.78a5.77,5.77,0,0,1-.14.95l-.31,1.37a13,13,0,0,1,1.51-2.41,1.69,1.69,0,0,1,1.23-.71.71.71,0,0,1,.53.2.81.81,0,0,1,.19.58,5,5,0,0,1-.18,1l-.28,1.13-.09.36a4.16,4.16,0,0,0-.13.85,1,1,0,0,0,.1.47.3.3,0,0,0,.26.18c.19,0,.5-.23.92-.68l.14.13-.08.1a9.07,9.07,0,0,1-.78.83.74.74,0,0,1-.47.22.58.58,0,0,1-.48-.29,1.24,1.24,0,0,1-.2-.72,5.16,5.16,0,0,1,.12-.87l.34-1.91.05-.33a2.26,2.26,0,0,0,.05-.44.36.36,0,0,0-.1-.27.37.37,0,0,0-.27-.1.8.8,0,0,0-.45.17,2.53,2.53,0,0,0-.52.52,8.9,8.9,0,0,0-.62.92,12.77,12.77,0,0,0-.75,1.46,13.53,13.53,0,0,0-.55,1.66"/><path class="cls-5" d="M179.37,67.14a.53.53,0,0,1,.39.15.57.57,0,0,1,0,.77.54.54,0,0,1-.76-.76.52.52,0,0,1,.39-.16m-.27,3.61-.81,3a4.73,4.73,0,0,0-.21,1.2,1,1,0,0,0,.1.48.3.3,0,0,0,.27.18c.19,0,.5-.23.91-.68l.15.13-.09.1a9.09,9.09,0,0,1-.77.83.72.72,0,0,1-.46.22.57.57,0,0,1-.48-.29,1.25,1.25,0,0,1-.2-.72,5.5,5.5,0,0,1,.11-.87l.58-3.22Z"/><path class="cls-5" d="M183.9,63.16l-2.42,10.62-.08.36a3.89,3.89,0,0,0-.12.86.9.9,0,0,0,.11.46.31.31,0,0,0,.26.18q.29,0,.91-.68l.15.13-.09.1a9.19,9.19,0,0,1-.77.83.73.73,0,0,1-.46.22.59.59,0,0,1-.48-.31,1.27,1.27,0,0,1-.21-.71,5,5,0,0,1,.12-.87l2.13-10.72Z"/><path class="cls-5" d="M184.46,74A4.89,4.89,0,0,0,186,73a3.44,3.44,0,0,0,.58-.79,1.7,1.7,0,0,0,.22-.76c0-.29-.13-.43-.4-.43s-.8.31-1.21.94a4.57,4.57,0,0,0-.73,2m2.95.7.17.14a4.38,4.38,0,0,1-1.11,1.09,2.22,2.22,0,0,1-1.17.33,1.53,1.53,0,0,1-1.2-.5,1.88,1.88,0,0,1-.45-1.32,3.68,3.68,0,0,1,.44-1.68,4.48,4.48,0,0,1,1.09-1.41,2,2,0,0,1,1.3-.56.88.88,0,0,1,.62.22.73.73,0,0,1,.24.57,2,2,0,0,1-.77,1.42,6.34,6.34,0,0,1-2.11,1.21,1.38,1.38,0,0,0,0,.17,1.54,1.54,0,0,0,.35,1,1.16,1.16,0,0,0,.9.4,1.48,1.48,0,0,0,.84-.27,4,4,0,0,0,.87-.85"/><path class="cls-5" d="M188.17,75.54l.51-.61a1.34,1.34,0,0,0,1.28,1,1.14,1.14,0,0,0,.79-.3.92.92,0,0,0,.32-.7.79.79,0,0,0-.15-.49,5.56,5.56,0,0,0-.74-.68,4.37,4.37,0,0,1-.73-.7.94.94,0,0,1-.19-.58,1.4,1.4,0,0,1,.25-.8,1.91,1.91,0,0,1,.68-.59,1.87,1.87,0,0,1,.89-.22,1.15,1.15,0,0,1,.7.2.63.63,0,0,1,.28.53.58.58,0,0,1-.36.58,1,1,0,0,0-.33-.68,1,1,0,0,0-.7-.24,1,1,0,0,0-.66.24.72.72,0,0,0-.28.56,1,1,0,0,0,.48.76l.53.43a1.67,1.67,0,0,1,.78,1.26,1.62,1.62,0,0,1-.27.9,2,2,0,0,1-.74.67,2.05,2.05,0,0,1-1,.25,1.66,1.66,0,0,1-1.38-.75"/><path class="cls-5" d="M193.47,77.65l-.14-.21a5.32,5.32,0,0,0,1-.75,2.05,2.05,0,0,0,.49-.72.81.81,0,0,1-.48.2.48.48,0,0,1-.38-.16.61.61,0,0,1-.14-.42,1,1,0,0,1,.24-.65.76.76,0,0,1,.59-.27.62.62,0,0,1,.48.22.8.8,0,0,1,.19.54,1.91,1.91,0,0,1-.51,1.18,4.18,4.18,0,0,1-1.29,1"/><path class="cls-5" d="M205.15,67.89A12.34,12.34,0,0,0,203.81,70a14.82,14.82,0,0,0-1,2.51,15.63,15.63,0,0,0-.39,1.53,6.4,6.4,0,0,0-.15,1.16c0,.39.1.58.29.58s.26-.1.39-.29a6,6,0,0,0,.46-1c.1-.24.21-.55.34-.93s.25-.73.35-1.08.23-.75.35-1.22.22-.83.28-1.09c.22-.91.37-1.68.46-2.29m.39-3.22.95-.44,0,.24c0,.19,0,.34,0,.46a2.75,2.75,0,0,1,0,.28l-.11.74s0,.08,0,.24a15.85,15.85,0,0,1,1.53-1.35,7.28,7.28,0,0,1,1.37-.88,2.75,2.75,0,0,1,1.13-.29,1.08,1.08,0,0,1,.86.37,1.52,1.52,0,0,1,.32,1,3.5,3.5,0,0,1-.49,1.63,9,9,0,0,1-1.41,1.86,11,11,0,0,1-1.79,1.58l.33,0a2.31,2.31,0,0,1,1.63.59,2,2,0,0,1,.63,1.53,3.58,3.58,0,0,1-.54,1.85,5,5,0,0,1-1.5,1.57,4.24,4.24,0,0,1-2.47.73,2.4,2.4,0,0,1-1.67-.46l.45-.59a2.37,2.37,0,0,0,1.65.71,2.63,2.63,0,0,0,1.54-.5A3.64,3.64,0,0,0,209,74.2a3.81,3.81,0,0,0,.43-1.78,2.24,2.24,0,0,0-.21-1,1.59,1.59,0,0,0-.61-.66,1.79,1.79,0,0,0-.93-.23,2.45,2.45,0,0,0-.62.09l.09-.45a8.57,8.57,0,0,0,1.6-1.21A8.85,8.85,0,0,0,210,67.37a3.62,3.62,0,0,0,.71-2,1.25,1.25,0,0,0-.28-.86.93.93,0,0,0-.74-.32,3.78,3.78,0,0,0-2.14,1.08,9.58,9.58,0,0,0-1.42,1.41l0,.17c-.1.67-.24,1.39-.42,2.17s-.4,1.61-.65,2.47-.51,1.65-.76,2.35a8,8,0,0,1-.86,1.83c-.28.39-.55.59-.82.59s-.63-.35-.63-1a8.16,8.16,0,0,1,.26-1.8,15.68,15.68,0,0,1,.66-2.1,13.72,13.72,0,0,1,2.34-4c.05-.36.11-.79.16-1.29s.1-1.06.13-1.37"/><path class="cls-5" d="M212.44,74A4.91,4.91,0,0,0,214,73a3.39,3.39,0,0,0,.58-.79,1.69,1.69,0,0,0,.22-.76c0-.29-.13-.43-.39-.43s-.8.31-1.21.94a4.54,4.54,0,0,0-.72,2m2.95.7.17.14a4.36,4.36,0,0,1-1.12,1.09,2.21,2.21,0,0,1-1.17.33,1.54,1.54,0,0,1-1.2-.5,1.9,1.9,0,0,1-.45-1.32,3.68,3.68,0,0,1,.44-1.68,4.45,4.45,0,0,1,1.1-1.41,2,2,0,0,1,1.3-.56.89.89,0,0,1,.62.22.74.74,0,0,1,.24.57,2,2,0,0,1-.77,1.42,6.34,6.34,0,0,1-2.11,1.21,1.38,1.38,0,0,0,0,.17,1.52,1.52,0,0,0,.35,1,1.15,1.15,0,0,0,.9.4,1.49,1.49,0,0,0,.84-.27,4.11,4.11,0,0,0,.87-.85"/><path class="cls-5" d="M220.79,71.87a1.08,1.08,0,0,0-.37-.55,1,1,0,0,0-.6-.2,1.39,1.39,0,0,0-.86.37,3.75,3.75,0,0,0-.82,1,5.88,5.88,0,0,0-.49,1.16,3.62,3.62,0,0,0-.2,1,1.3,1.3,0,0,0,.18.73.57.57,0,0,0,.51.27,1.39,1.39,0,0,0,.88-.39,4.82,4.82,0,0,0,.91-1.13,4.55,4.55,0,0,0,.43-.85c.1-.28.22-.68.35-1.18Zm1.06-1.18L221,74.06a3.84,3.84,0,0,0-.14.86.91.91,0,0,0,.12.48.34.34,0,0,0,.3.2c.18,0,.47-.22.88-.65l.13.13-.1.12a8.11,8.11,0,0,1-.75.79.75.75,0,0,1-.45.23.61.61,0,0,1-.51-.31,1.18,1.18,0,0,1-.22-.71,8.28,8.28,0,0,1,.22-1.34l.07-.35a6.67,6.67,0,0,1-.91,1.52,2.55,2.55,0,0,1-1.83,1.22,1,1,0,0,1-.83-.38,1.57,1.57,0,0,1-.3-1,4,4,0,0,1,.49-1.81,5,5,0,0,1,1.22-1.56,2.24,2.24,0,0,1,1.42-.61,1.22,1.22,0,0,1,1.09.53l.1-.35Z"/><path class="cls-5" d="M225.13,70.75l-.89,3.56a3.57,3.57,0,0,0-.12.81.67.67,0,0,0,.2.51.72.72,0,0,0,.53.19q.78,0,1.63-1.28l0-.06,0-.15.58-3.22.9-.38-.81,3A4.71,4.71,0,0,0,227,75a1,1,0,0,0,.1.48.31.31,0,0,0,.27.18c.19,0,.49-.23.91-.68l.15.13-.09.1a9.85,9.85,0,0,1-.77.83.73.73,0,0,1-.46.22.57.57,0,0,1-.48-.29,1.25,1.25,0,0,1-.2-.72,2.31,2.31,0,0,1,0-.26,2.57,2.57,0,0,1-1.9,1.27,1,1,0,0,1-.75-.27,1,1,0,0,1-.28-.72,4.55,4.55,0,0,1,.1-.86l.63-3.26Z"/><path class="cls-5" d="M231.17,71.22l-.7,3.07a3.77,3.77,0,0,0-.11.72.85.85,0,0,0,.16.53.5.5,0,0,0,.42.2.8.8,0,0,0,.45-.14A4.81,4.81,0,0,0,232,75l.11-.11.14.14a5.63,5.63,0,0,1-.91.93,1.18,1.18,0,0,1-.71.27.9.9,0,0,1-.7-.29,1.08,1.08,0,0,1-.26-.76,5.35,5.35,0,0,1,.14-1l.6-3h-.89l.07-.31h.88l.51-2.49.88-.35-.64,2.83h1.49l-.07.31Z"/><path class="cls-5" d="M235.37,67.14a.54.54,0,0,1,.39.15.57.57,0,0,1,0,.77.52.52,0,0,1-.75,0,.52.52,0,0,1,0-.75.53.53,0,0,1,.39-.16m-.27,3.61-.81,3a4.92,4.92,0,0,0-.2,1.2,1,1,0,0,0,.1.48.3.3,0,0,0,.27.18c.19,0,.5-.23.91-.68l.15.13-.09.1a8.45,8.45,0,0,1-.78.83.71.71,0,0,1-.46.22.57.57,0,0,1-.48-.29,1.25,1.25,0,0,1-.2-.72,5.26,5.26,0,0,1,.11-.87l.58-3.22Z"/><path class="cls-5" d="M237.59,71.22h-.9l.07-.31h.91l.86-4a11.58,11.58,0,0,1,.45-1.6,4.3,4.3,0,0,1,.55-1,2.38,2.38,0,0,1,2-1.06,2,2,0,0,1,.73.13l-.33.84a1.11,1.11,0,0,0-.94-.51.86.86,0,0,0-.7.34,2.94,2.94,0,0,0-.46,1.11l-1.41,5.84h1.48l-.06.31h-1.5L237,76.45a9.22,9.22,0,0,1-.48,1.57,3.74,3.74,0,0,1-.64,1,2.17,2.17,0,0,1-1.61.8,1.88,1.88,0,0,1-.76-.15L234,79a1.3,1.3,0,0,0,.84.32,1.1,1.1,0,0,0,1-.72,9.4,9.4,0,0,0,.52-1.77Z"/><path class="cls-5" d="M241.81,70.75l-.9,3.56a3.66,3.66,0,0,0-.12.81.67.67,0,0,0,.2.51.73.73,0,0,0,.53.19q.78,0,1.63-1.28l0-.06,0-.15.58-3.22.9-.38-.81,3a4.83,4.83,0,0,0-.2,1.2,1,1,0,0,0,.1.48.3.3,0,0,0,.27.18c.19,0,.49-.23.91-.68l.15.13-.09.1a8.87,8.87,0,0,1-.77.83.72.72,0,0,1-.46.22.58.58,0,0,1-.48-.29,1.24,1.24,0,0,1-.2-.72c0-.09,0-.18,0-.26a2.56,2.56,0,0,1-1.89,1.27,1,1,0,0,1-.75-.27,1,1,0,0,1-.28-.72,4.55,4.55,0,0,1,.1-.86l.63-3.26Z"/><path class="cls-5" d="M249.54,63.16l-2.42,10.62-.09.36a3.88,3.88,0,0,0-.12.86.91.91,0,0,0,.11.46.31.31,0,0,0,.26.18c.19,0,.5-.23.91-.68l.15.13-.09.1a9.24,9.24,0,0,1-.78.83.72.72,0,0,1-.46.22.59.59,0,0,1-.48-.31,1.24,1.24,0,0,1-.21-.71,5,5,0,0,1,.12-.87l2.13-10.72Z"/><path class="cls-5" d="M263.86,72.05h-3.15a11,11,0,0,1,1.39,1.31,10.85,10.85,0,0,1,1.18,1.51Zm-3.8-.32h3.87l1.57-7.53,1-.48-2.61,12.4h-.57a6.85,6.85,0,0,0-.56-1.24,8.15,8.15,0,0,0-.81-1.18,8.36,8.36,0,0,0-1-1,4.26,4.26,0,0,0-1-.68l0,0a9.41,9.41,0,0,1-1.28,2.15,6.12,6.12,0,0,1-1.54,1.43,5.39,5.39,0,0,1-1.05.5,7.48,7.48,0,0,1-1.24.32,7.91,7.91,0,0,1-1.31.11,5.6,5.6,0,0,1-1-.09l.3-.73a6.27,6.27,0,0,0,1.87.34,3.79,3.79,0,0,0,1.93-.53,4.38,4.38,0,0,0,1.52-1.42,14,14,0,0,0,1.54-3.44c.08-.24.2-.64.36-1.22s.3-1.12.44-1.65.23-1,.31-1.32l.32-1.64,0-.17,1-.52c-.06.49-.17,1.07-.32,1.74s-.33,1.36-.53,2.07-.41,1.41-.63,2.08a16,16,0,0,1-.6,1.61Z"/><path class="cls-5" d="M267.29,74a4.85,4.85,0,0,0,1.53-1,3.33,3.33,0,0,0,.58-.79,1.69,1.69,0,0,0,.22-.76c0-.29-.13-.43-.4-.43s-.8.31-1.21.94a4.53,4.53,0,0,0-.72,2m2.95.7.17.14a4.41,4.41,0,0,1-1.11,1.09,2.22,2.22,0,0,1-1.17.33,1.54,1.54,0,0,1-1.2-.5,1.89,1.89,0,0,1-.45-1.32,3.68,3.68,0,0,1,.44-1.68A4.46,4.46,0,0,1,268,71.37a2,2,0,0,1,1.3-.56.88.88,0,0,1,.62.22.73.73,0,0,1,.24.57A2,2,0,0,1,269.4,73a6.38,6.38,0,0,1-2.11,1.21,1.14,1.14,0,0,0,0,.17,1.53,1.53,0,0,0,.35,1,1.16,1.16,0,0,0,.91.4,1.49,1.49,0,0,0,.84-.27,4.11,4.11,0,0,0,.86-.85"/><path class="cls-5" d="M275.65,71.87a1.09,1.09,0,0,0-.37-.55,1,1,0,0,0-.6-.2,1.38,1.38,0,0,0-.86.37,3.7,3.7,0,0,0-.83,1,6,6,0,0,0-.49,1.16,3.67,3.67,0,0,0-.2,1,1.3,1.3,0,0,0,.18.73.57.57,0,0,0,.51.27,1.38,1.38,0,0,0,.88-.39,4.82,4.82,0,0,0,.91-1.13,4.54,4.54,0,0,0,.43-.85c.1-.28.22-.68.35-1.18Zm1.06-1.18-.87,3.37a3.77,3.77,0,0,0-.14.86.91.91,0,0,0,.12.48.34.34,0,0,0,.3.2q.27,0,.88-.65l.13.13-.1.12a8.28,8.28,0,0,1-.75.79.75.75,0,0,1-.45.23.62.62,0,0,1-.51-.31,1.18,1.18,0,0,1-.22-.71,8.67,8.67,0,0,1,.22-1.34l.07-.35a6.94,6.94,0,0,1-.91,1.52,2.56,2.56,0,0,1-1.83,1.22,1,1,0,0,1-.83-.38,1.57,1.57,0,0,1-.3-1A4,4,0,0,1,272,73a5,5,0,0,1,1.22-1.56,2.25,2.25,0,0,1,1.42-.61,1.22,1.22,0,0,1,1.08.53l.1-.35Z"/><path class="cls-5" d="M281.56,63.16l-2.42,10.62-.09.36a3.8,3.8,0,0,0-.12.86.9.9,0,0,0,.11.46.3.3,0,0,0,.26.18c.19,0,.49-.23.91-.68l.15.13-.09.1a9.77,9.77,0,0,1-.77.83.73.73,0,0,1-.46.22.59.59,0,0,1-.48-.31,1.25,1.25,0,0,1-.21-.71,4.79,4.79,0,0,1,.12-.87l2.13-10.72Z"/><path class="cls-5" d="M283.06,71.22l-.7,3.07a3.91,3.91,0,0,0-.11.72.86.86,0,0,0,.16.53.5.5,0,0,0,.41.2.79.79,0,0,0,.46-.14,5.13,5.13,0,0,0,.63-.6l.11-.11.14.14a5.78,5.78,0,0,1-.91.93,1.2,1.2,0,0,1-.72.27.9.9,0,0,1-.7-.29,1.08,1.08,0,0,1-.26-.76,5.38,5.38,0,0,1,.14-1l.6-3h-.88l.06-.31h.89l.51-2.49.88-.35-.65,2.83h1.49l-.06.31Z"/><path class="cls-5" d="M285.12,76.22l2.45-12.59,1-.47L286,74.37a.23.23,0,0,0,0-.08l.22-.48a7.78,7.78,0,0,1,1.36-2.14,2.1,2.1,0,0,1,1.43-.84.73.73,0,0,1,.56.23.85.85,0,0,1,.21.6,2.61,2.61,0,0,1-.1.6l-.09.39-.29,1.12-.08.36a3.9,3.9,0,0,0-.14.85,1,1,0,0,0,.1.47.3.3,0,0,0,.27.18c.19,0,.49-.23.91-.68l.14.13-.08.1a7.89,7.89,0,0,1-.78.83.74.74,0,0,1-.45.22.58.58,0,0,1-.49-.31,1.23,1.23,0,0,1-.2-.71,5.45,5.45,0,0,1,.12-.87l.35-2a3.73,3.73,0,0,0,.08-.64.4.4,0,0,0-.1-.29.36.36,0,0,0-.28-.1,1.27,1.27,0,0,0-.78.4,5.36,5.36,0,0,0-.89,1.11,9.64,9.64,0,0,0-.78,1.52,8.61,8.61,0,0,0-.5,1.65Z"/><path class="cls-5" d="M248.11,56.42c1-.59,1.5-1.23,1.5-1.94,0-.94-1.37-.24-1.37-1.44a.88.88,0,0,1,.92-1c.7,0,1.21.83,1.21,1.63a3.21,3.21,0,0,1-2.26,3Z"/></g></svg>